<svg id="visual" viewBox="0 0 900 600" width="900" height="600" xmlns="http://www.w3.org/2000/svg" xmlns:xlink="http://www.w3.org/1999/xlink" version="1.1"><g stroke-width="1" stroke-linejoin="bevel"><path d="M524 329L608 290L512 222Z" fill="#113349" stroke="#113349"></path><path d="M608 290L565 172L512 222Z" fill="#2592c4" stroke="#2592c4"></path><path d="M610 408L684 301L608 290Z" fill="#2592c4" stroke="#2592c4"></path><path d="M608 290L664 160L565 172Z" fill="#1d597b" stroke="#1d597b"></path><path d="M664 160L584 133L565 172Z" fill="#0d2739" stroke="#0d2739"></path><path d="M501 100L421 169L512 222Z" fill="#22759f" stroke="#22759f"></path><path d="M524 329L610 408L608 290Z" fill="#0d2739" stroke="#0d2739"></path><path d="M684 301L664 160L608 290Z" fill="#1d597b" stroke="#1d597b"></path><path d="M367 306L460 408L524 329Z" fill="#00101c" stroke="#00101c"></path><path d="M524 329L460 408L610 408Z" fill="#22759f" stroke="#22759f"></path><path d="M501 100L512 222L565 172Z" fill="#20678d" stroke="#20678d"></path><path d="M512 222L367 306L524 329Z" fill="#153f59" stroke="#153f59"></path><path d="M584 133L501 100L565 172Z" fill="#1d597b" stroke="#1d597b"></path><path d="M564 0L501 100L584 133Z" fill="#1d597b" stroke="#1d597b"></path><path d="M421 169L367 306L512 222Z" fill="#1d597b" stroke="#1d597b"></path><path d="M784 99L665 95L664 160Z" fill="#2592c4" stroke="#2592c4"></path><path d="M664 160L665 95L584 133Z" fill="#20678d" stroke="#20678d"></path><path d="M367 306L383 429L460 408Z" fill="#2592c4" stroke="#2592c4"></path><path d="M460 408L529 507L610 408Z" fill="#2483b1" stroke="#2483b1"></path><path d="M501 100L368 126L421 169Z" fill="#2483b1" stroke="#2483b1"></path><path d="M421 169L315 239L367 306Z" fill="#2483b1" stroke="#2483b1"></path><path d="M404 535L529 507L460 408Z" fill="#22759f" stroke="#22759f"></path><path d="M630 515L721 433L610 408Z" fill="#2483b1" stroke="#2483b1"></path><path d="M610 408L721 433L684 301Z" fill="#194c6a" stroke="#194c6a"></path><path d="M684 301L802 266L664 160Z" fill="#194c6a" stroke="#194c6a"></path><path d="M368 126L315 239L421 169Z" fill="#081c2a" stroke="#081c2a"></path><path d="M367 306L280 377L383 429Z" fill="#00101c" stroke="#00101c"></path><path d="M721 433L765 369L684 301Z" fill="#2483b1" stroke="#2483b1"></path><path d="M765 369L802 266L684 301Z" fill="#113349" stroke="#113349"></path><path d="M529 507L630 515L610 408Z" fill="#081c2a" stroke="#081c2a"></path><path d="M665 95L564 0L584 133Z" fill="#1d597b" stroke="#1d597b"></path><path d="M501 100L413 0L368 126Z" fill="#20678d" stroke="#20678d"></path><path d="M564 0L478 0L501 100Z" fill="#0d2739" stroke="#0d2739"></path><path d="M230 128L267 262L315 239Z" fill="#081c2a" stroke="#081c2a"></path><path d="M315 239L267 262L367 306Z" fill="#194c6a" stroke="#194c6a"></path><path d="M721 433L792 511L765 369Z" fill="#153f59" stroke="#153f59"></path><path d="M630 515L714 507L721 433Z" fill="#153f59" stroke="#153f59"></path><path d="M267 262L280 377L367 306Z" fill="#00101c" stroke="#00101c"></path><path d="M383 429L404 535L460 408Z" fill="#0d2739" stroke="#0d2739"></path><path d="M832 171L784 99L664 160Z" fill="#153f59" stroke="#153f59"></path><path d="M665 95L664 0L564 0Z" fill="#00101c" stroke="#00101c"></path><path d="M784 99L664 0L665 95Z" fill="#2592c4" stroke="#2592c4"></path><path d="M336 522L404 535L383 429Z" fill="#153f59" stroke="#153f59"></path><path d="M529 507L607 600L630 515Z" fill="#081c2a" stroke="#081c2a"></path><path d="M802 266L832 171L664 160Z" fill="#00101c" stroke="#00101c"></path><path d="M368 126L302 97L315 239Z" fill="#1d597b" stroke="#1d597b"></path><path d="M413 0L302 97L368 126Z" fill="#081c2a" stroke="#081c2a"></path><path d="M478 0L413 0L501 100Z" fill="#20678d" stroke="#20678d"></path><path d="M267 262L226 283L280 377Z" fill="#20678d" stroke="#20678d"></path><path d="M183 191L226 283L267 262Z" fill="#20678d" stroke="#20678d"></path><path d="M280 377L336 522L383 429Z" fill="#081c2a" stroke="#081c2a"></path><path d="M232 416L336 522L280 377Z" fill="#153f59" stroke="#153f59"></path><path d="M490 600L607 600L529 507Z" fill="#081c2a" stroke="#081c2a"></path><path d="M630 515L677 600L714 507Z" fill="#153f59" stroke="#153f59"></path><path d="M490 600L529 507L404 535Z" fill="#153f59" stroke="#153f59"></path><path d="M418 600L490 600L404 535Z" fill="#2592c4" stroke="#2592c4"></path><path d="M778 600L792 511L714 507Z" fill="#194c6a" stroke="#194c6a"></path><path d="M714 507L792 511L721 433Z" fill="#1d597b" stroke="#1d597b"></path><path d="M765 369L900 260L802 266Z" fill="#20678d" stroke="#20678d"></path><path d="M802 266L900 206L832 171Z" fill="#1d597b" stroke="#1d597b"></path><path d="M226 283L232 416L280 377Z" fill="#2592c4" stroke="#2592c4"></path><path d="M263 0L230 128L302 97Z" fill="#153f59" stroke="#153f59"></path><path d="M302 97L230 128L315 239Z" fill="#153f59" stroke="#153f59"></path><path d="M900 436L900 260L765 369Z" fill="#113349" stroke="#113349"></path><path d="M832 171L900 117L784 99Z" fill="#0d2739" stroke="#0d2739"></path><path d="M607 600L677 600L630 515Z" fill="#081c2a" stroke="#081c2a"></path><path d="M338 600L418 600L404 535Z" fill="#2483b1" stroke="#2483b1"></path><path d="M900 260L900 206L802 266Z" fill="#113349" stroke="#113349"></path><path d="M230 128L183 191L267 262Z" fill="#194c6a" stroke="#194c6a"></path><path d="M226 283L109 324L232 416Z" fill="#20678d" stroke="#20678d"></path><path d="M900 206L900 117L832 171Z" fill="#2592c4" stroke="#2592c4"></path><path d="M784 99L833 0L664 0Z" fill="#2483b1" stroke="#2483b1"></path><path d="M900 503L900 436L792 511Z" fill="#22759f" stroke="#22759f"></path><path d="M792 511L900 436L765 369Z" fill="#00101c" stroke="#00101c"></path><path d="M198 514L338 600L336 522Z" fill="#22759f" stroke="#22759f"></path><path d="M336 522L338 600L404 535Z" fill="#2592c4" stroke="#2592c4"></path><path d="M900 117L833 0L784 99Z" fill="#2483b1" stroke="#2483b1"></path><path d="M413 0L263 0L302 97Z" fill="#22759f" stroke="#22759f"></path><path d="M230 128L63 128L183 191Z" fill="#153f59" stroke="#153f59"></path><path d="M677 600L778 600L714 507Z" fill="#194c6a" stroke="#194c6a"></path><path d="M900 600L900 503L792 511Z" fill="#22759f" stroke="#22759f"></path><path d="M74 424L198 514L232 416Z" fill="#0d2739" stroke="#0d2739"></path><path d="M232 416L198 514L336 522Z" fill="#00101c" stroke="#00101c"></path><path d="M100 211L109 324L226 283Z" fill="#153f59" stroke="#153f59"></path><path d="M100 211L226 283L183 191Z" fill="#00101c" stroke="#00101c"></path><path d="M900 117L900 0L833 0Z" fill="#0d2739" stroke="#0d2739"></path><path d="M263 0L191 0L230 128Z" fill="#20678d" stroke="#20678d"></path><path d="M63 128L100 211L183 191Z" fill="#1d597b" stroke="#1d597b"></path><path d="M778 600L900 600L792 511Z" fill="#1d597b" stroke="#1d597b"></path><path d="M198 514L182 600L338 600Z" fill="#20678d" stroke="#20678d"></path><path d="M130 600L182 600L198 514Z" fill="#081c2a" stroke="#081c2a"></path><path d="M0 304L74 424L109 324Z" fill="#2592c4" stroke="#2592c4"></path><path d="M109 324L74 424L232 416Z" fill="#113349" stroke="#113349"></path><path d="M191 0L63 128L230 128Z" fill="#081c2a" stroke="#081c2a"></path><path d="M100 211L0 304L109 324Z" fill="#2592c4" stroke="#2592c4"></path><path d="M191 0L93 0L63 128Z" fill="#22759f" stroke="#22759f"></path><path d="M67 503L130 600L198 514Z" fill="#081c2a" stroke="#081c2a"></path><path d="M0 432L67 503L74 424Z" fill="#2592c4" stroke="#2592c4"></path><path d="M74 424L67 503L198 514Z" fill="#1d597b" stroke="#1d597b"></path><path d="M0 221L0 304L100 211Z" fill="#0d2739" stroke="#0d2739"></path><path d="M0 221L100 211L63 128Z" fill="#2483b1" stroke="#2483b1"></path><path d="M0 62L0 221L63 128Z" fill="#1d597b" stroke="#1d597b"></path><path d="M0 304L0 432L74 424Z" fill="#2483b1" stroke="#2483b1"></path><path d="M67 503L0 600L130 600Z" fill="#00101c" stroke="#00101c"></path><path d="M93 0L0 62L63 128Z" fill="#2483b1" stroke="#2483b1"></path><path d="M0 432L0 513L67 503Z" fill="#081c2a" stroke="#081c2a"></path><path d="M93 0L0 0L0 62Z" fill="#081c2a" stroke="#081c2a"></path><path d="M0 513L0 600L67 503Z" fill="#00101c" stroke="#00101c"></path></g></svg>